<svg xmlns="http://www.w3.org/2000/svg" viewBox="0 0 500 500"><g id="freepik--Floor--inject-62"><ellipse id="freepik--floor--inject-62" cx="249.81" cy="342.08" rx="236.45" ry="136.51" style="fill:#f0f0f0"></ellipse></g><g id="freepik--Shadows--inject-62"><ellipse id="freepik--Shadow--inject-62" cx="146.18" cy="388.09" rx="58.47" ry="33.75" style="fill:#e0e0e0"></ellipse><ellipse id="freepik--shadow--inject-62" cx="353.34" cy="388.09" rx="58.47" ry="33.75" style="fill:#e0e0e0"></ellipse><ellipse id="freepik--shadow--inject-62" cx="250.22" cy="379.71" rx="58.47" ry="33.75" style="fill:#e0e0e0"></ellipse></g><g id="freepik--Plants--inject-62"><g id="freepik--plants--inject-62"><path d="M72.37,293.4l9.53-5.5s2.33-20.41.78-36.21c-2.18-22.2-16.52-48.91-33.63-42.64s7.85,28.89,13.4,47.72S72.37,293.4,72.37,293.4Z" style="fill:#3333FF"></path><path d="M72.37,293.4l9.53-5.5s2.33-20.41.78-36.21c-2.18-22.2-16.52-48.91-33.63-42.64s7.85,28.89,13.4,47.72S72.37,293.4,72.37,293.4Z" style="opacity:0.15"></path><path d="M77.38,291.08h0a.57.57,0,0,1-.55-.6c1.67-49.33-22.89-74.15-23.14-74.39a.58.58,0,0,1,.81-.82c.25.25,25.17,25.42,23.48,75.25A.58.58,0,0,1,77.38,291.08Z" style="fill:#fff"></path><path d="M66.38,296.83l6.78-3.92s1.15-14-5.71-31c-6-14.8-20.8-27.08-28.26-24.5s-7.27,7.87-3.63,13.41S61.31,269.58,66.38,296.83Z" style="fill:#3333FF"></path><path d="M70,295.34h0a.58.58,0,0,1-.58-.58c.14-31.19-29.15-52.27-29.45-52.48a.58.58,0,0,1,.67-.95c.3.22,30.07,21.65,29.93,53.43A.57.57,0,0,1,70,295.34Z" style="fill:#fff"></path></g><g id="freepik--plants--inject-62"><path d="M426.13,284.58l-8-4.64s-4.78-19.87-2.87-37.74c2.68-25.13,19.22-34.59,25.51-32.42s8.11,9.48-2.3,24.45C432.29,243.06,424.75,261.45,426.13,284.58Z" style="fill:#3333FF"></path><g style="opacity:0.15"><path d="M426.13,284.58l-8-4.64s-4.78-19.87-2.87-37.74c2.68-25.13,19.22-34.59,25.51-32.42s8.11,9.48-2.3,24.45C432.29,243.06,424.75,261.45,426.13,284.58Z"></path></g><path d="M422.8,274.82h.08a.56.56,0,0,0,.44-.65C418.92,251,427,224.94,437,214.1a.56.56,0,0,0,0-.79.56.56,0,0,0-.79,0c-10.21,11-18.46,37.51-14,61A.56.56,0,0,0,422.8,274.82Z" style="fill:#fff"></path><path d="M447.17,296.73c1.27.65,4.64-2.24,5.58-2.94a11.92,11.92,0,0,0,3.69-4.69,11.08,11.08,0,0,0,.65-6.68,27.09,27.09,0,0,0-1-3.48c-.38-1.12-.77-2.24-1.15-3.37a8.63,8.63,0,0,1-.68-3.42c.18-2.35,2.17-4.09,4-5.6,2-1.67,4.08-3.84,3.92-6.66a10,10,0,0,0-2.77-5.77c-1.44-1.63-3.11-3.06-4.42-4.8a6.86,6.86,0,0,1-1.63-4.3,7.24,7.24,0,0,1,.81-2.78c.9-1.88,2.13-3.63,2.72-5.63s.36-4.45-1.25-5.78c-1.32-1.09-3.2-1.16-4.9-1a11.07,11.07,0,0,0-4.43,1.81c-4.34,2.71-6.62,8.13-11.27,10.28a47.49,47.49,0,0,1-5.67,1.7c-1.88.6-3.78,1.67-4.57,3.48-1.56,3.56,1.88,7.68.84,11.44-.91,3.32-4,4.73-5.66,7.76a7,7,0,0,0-.62,4.32,20.49,20.49,0,0,0,2.17,7.13,64.77,64.77,0,0,0,4.29,6.6S447,296.63,447.17,296.73Z" style="fill:#3333FF"></path><path d="M434.87,290.32h0a.56.56,0,0,0,.51-.6c-2-22.05,7.15-47,14.36-54.43a.56.56,0,1,0-.8-.78c-7.36,7.62-16.73,32.95-14.67,55.31A.55.55,0,0,0,434.87,290.32Z" style="fill:#fff"></path><path d="M437.06,263.14a.51.51,0,0,0,.17,0,75.23,75.23,0,0,1,15.9-3.4.56.56,0,0,0-.1-1.11,76.58,76.58,0,0,0-16.19,3.46.56.56,0,0,0,.22,1.08Z" style="fill:#fff"></path></g></g><g id="freepik--Table--inject-62"><g id="freepik--table--inject-62"><g id="freepik--table--inject-62"><path d="M275.26,361.21c-13.95-8-36.57-8-50.52,0-7,4-10.45,9.3-10.45,14.58,0,.55,0,2.89,0,3.52.1,5.2,3.58,10.37,10.44,14.33,13.95,8.06,36.57,8.06,50.52,0,6.89-4,10.37-9.18,10.45-14.4v-3.53C285.67,370.46,282.19,365.22,275.26,361.21Z" style="fill:#37474f"></path><path d="M224.74,390.37c-13.94-8.05-13.94-21.11,0-29.16s36.57-8,50.52,0,13.94,21.11,0,29.16S238.69,398.43,224.74,390.37Z" style="fill:#455a64"></path><path d="M254.1,373.2h0V243.3h-8.24V373.2h0a1.92,1.92,0,0,0,1.18,1.89,6.46,6.46,0,0,0,5.84,0A1.91,1.91,0,0,0,254.1,373.2Z" style="fill:#37474f"></path><path d="M286.92,201.77c-20.39-11.77-53.45-11.77-73.84,0-10.2,5.89-15.29,13.6-15.29,21.32v3.8c0,7.71,5.09,15.43,15.29,21.31,20.39,11.78,53.45,11.78,73.84,0,10.2-5.88,15.29-13.6,15.29-21.31v-3.8C302.21,215.37,297.12,207.66,286.92,201.77Z" style="fill:#455a64"></path><path d="M286.92,197.17c-20.39-11.77-53.45-11.77-73.84,0-10.2,5.89-15.29,13.6-15.29,21.32v3.79c0,7.72,5.09,15.43,15.29,21.32,20.39,11.77,53.45,11.77,73.84,0,10.2-5.89,15.29-13.6,15.29-21.32v-3.79C302.21,210.77,297.12,203.06,286.92,197.17Z" style="fill:#3333FF"></path><path d="M286.92,197.17c-20.39-11.77-53.45-11.77-73.84,0-10.2,5.89-15.29,13.6-15.29,21.32v3.79c0,7.72,5.09,15.43,15.29,21.32,20.39,11.77,53.45,11.77,73.84,0,10.2-5.89,15.29-13.6,15.29-21.32v-3.79C302.21,210.77,297.12,203.06,286.92,197.17Z" style="opacity:0.4"></path><ellipse cx="250" cy="218.49" rx="52.22" ry="30.15" style="fill:#3333FF;opacity:0.5"></ellipse></g><g id="freepik--Slice--inject-62"><g id="freepik--Plate--inject-62"><path d="M243,212.84c-7.6-4.39-19.91-4.39-27.51,0h0v-.79c-4,2.29-5.86,5.33-5.68,8.34-.18,3,1.71,6,5.68,8.33,7.6,4.39,19.91,4.39,27.51,0S250.63,217.22,243,212.84Z" style="fill:#e0e0e0"></path><path d="M243,212.05c7.6,4.38,7.6,11.5,0,15.88s-19.91,4.39-27.51,0-7.6-11.5,0-15.88S235.43,207.66,243,212.05Z" style="fill:#3333FF"></path><path d="M243,212.05c7.6,4.38,7.6,11.5,0,15.88s-19.91,4.39-27.51,0-7.6-11.5,0-15.88S235.43,207.66,243,212.05Z" style="fill:#fafafa"></path><path d="M220,215.32c-5.22,3-5.22,7.9,0,10.92s13.68,3,18.9,0,5.22-7.9,0-10.92S225.17,212.31,220,215.32Z" style="fill:#e0e0e0"></path><path d="M220.59,215.69c-4.86,2.81-4.86,7.37,0,10.18s12.75,2.81,17.62,0,4.87-7.37,0-10.18S225.46,212.88,220.59,215.69Z" style="fill:#ebebeb"></path></g><g id="freepik--slice--inject-62"><path id="freepik--shadow--inject-62" d="M216.94,224.41c0,.52.05,1.08.54,1.08l25.5-.09c1.06,0,1.21-.66.71-2.28s-3.25-6.55-7.48-7.48Z" style="opacity:0.15"></path><g id="freepik--slice--inject-62"><path d="M216.94,214.82v9.79a.56.56,0,0,0,.63.55l22.55-3.06a1.17,1.17,0,0,0,1-1.16v-9.49a.59.59,0,0,0-.22-.44l-11.56-8.63a1.1,1.1,0,0,0-1.48.13l-10.68,11.67A1,1,0,0,0,216.94,214.82Z" style="fill:#263238"></path><path d="M234.51,204.31A28.5,28.5,0,0,0,229.4,202a1.38,1.38,0,0,0-1.44.37l-10.82,11.83a.1.1,0,0,0,.09.17l23.5-3.18c.4,0,.4.22.4.22h0a1.4,1.4,0,0,0-.11-.53A15,15,0,0,0,234.51,204.31Z" style="fill:#455a64"></path><g style="opacity:0.7000000000000001"><path d="M217.55,225.15l22-3v-2.73a.92.92,0,0,0-1.07-.93l-21.54,2.9v3.21A.53.53,0,0,0,217.55,225.15Z" style="fill:#3333FF"></path><path d="M238.48,217a1.26,1.26,0,0,0,1.07-1.22v-1.66a.92.92,0,0,0-1.07-.93l-21.54,2.9v3.83Z" style="fill:#3333FF"></path></g></g><ellipse cx="230.75" cy="208.13" rx="4.81" ry="2.78" style="opacity:0.2"></ellipse><path d="M231.93,203.32a7.68,7.68,0,0,1,2.55,1.49,2.73,2.73,0,0,1,.62,3.17,2.81,2.81,0,0,1-2.47,1.53,7.32,7.32,0,0,0-.06-3C232.19,205,231.93,203.32,231.93,203.32Z" style="fill:#3333FF"></path><path d="M231.93,203.32a7.68,7.68,0,0,1,2.55,1.49,2.73,2.73,0,0,1,.62,3.17,2.81,2.81,0,0,1-2.47,1.53,7.32,7.32,0,0,0-.06-3C232.19,205,231.93,203.32,231.93,203.32Z" style="opacity:0.2"></path><path d="M230,203.24c-.36.51-1.63.8-2.48,1.35a3,3,0,0,0-1.5,1.64,1.86,1.86,0,0,0,.89,2.25c1,.45,2.88-1.09,3.09-1.65A21.22,21.22,0,0,0,230,203.24Z" style="fill:#9a4a4d"></path><path d="M230,203.24c-.36.51-1.63.8-2.48,1.35a3,3,0,0,0-1.5,1.64,1.86,1.86,0,0,0,.89,2.25c1,.45,2.88-1.09,3.09-1.65A21.22,21.22,0,0,0,230,203.24Z" style="fill:#3333FF"></path><path d="M230,203.24c-.36.51-1.63.8-2.48,1.35a3,3,0,0,0-1.5,1.64,1.86,1.86,0,0,0,.89,2.25c1,.45,2.88-1.09,3.09-1.65A21.22,21.22,0,0,0,230,203.24Z" style="opacity:0.30000000000000004"></path><path d="M230.56,202.3a1.77,1.77,0,0,0-.64,1.61,2.87,2.87,0,0,1-1.69,2.89c-1.53.82-1.71,1.63-.9,2.34a2.56,2.56,0,0,0,1.87.54s2.26-.52,2.73-2.22S231.51,203.05,230.56,202.3Z" style="fill:#3333FF"></path><path d="M230.56,202.3a1.77,1.77,0,0,0-.64,1.61,2.87,2.87,0,0,1-1.69,2.89c-1.53.82-1.71,1.63-.9,2.34a2.56,2.56,0,0,0,1.87.54s2.26-.52,2.73-2.22S231.51,203.05,230.56,202.3Z" style="opacity:0.2"></path><path d="M230.75,210.17c-1.47,0-2.07-.64-1.38-1.48.34-.42.95-.59,1.34-1a2.67,2.67,0,0,0,.78-1.61c.13-1.51-1.69-3.07-.63-4.39.12.72.42,1.13,1.48,2a4.19,4.19,0,0,1,1.3,4.66A3.48,3.48,0,0,1,230.75,210.17Z" style="fill:#3333FF"></path><path d="M230.75,210.17c-1.47,0-2.07-.64-1.38-1.48.34-.42.95-.59,1.34-1a2.67,2.67,0,0,0,.78-1.61c.13-1.51-1.69-3.07-.63-4.39.12.72.42,1.13,1.48,2a4.19,4.19,0,0,1,1.3,4.66A3.48,3.48,0,0,1,230.75,210.17Z" style="opacity:0.1"></path><path d="M233.81,208.66a3.38,3.38,0,0,0,.08-1.68,2.8,2.8,0,0,1-2.24,2.18,4,4,0,0,1-1.5.16c-.58,0-.91-.27-.88-.49l.07-.11.1-.11.05-.05,0,0,.13-.1.06,0,0,0,.27-.17.43-.28.07-.06a.52.52,0,0,0,.11-.1h0l.09-.1a2.09,2.09,0,0,0,.14-.17l.07-.08,0,0a.71.71,0,0,0,.1-.14,1.63,1.63,0,0,0,.11-.17,2.24,2.24,0,0,0,.2-.45.23.23,0,0,0,0-.09v0a3.06,3.06,0,0,1-1.7,1.49,3.37,3.37,0,0,1-2,.22c-.63-.09-.65-.44-.65-.48l0,0a3.38,3.38,0,0,1,1.15-.89,3.76,3.76,0,0,0,.69-.46,3.54,3.54,0,0,1-.84.39,4,4,0,0,1-1.48.15c-.56-.12-.65-.39-.56-.78a1.12,1.12,0,0,1,0,.13,1.86,1.86,0,0,0,.89,2.25h0a1.35,1.35,0,0,0,.45.66,2.56,2.56,0,0,0,1.87.54h0a1.9,1.9,0,0,0,1.55.49,3.69,3.69,0,0,0,1.88-.66h0A2.81,2.81,0,0,0,235.1,208a2.56,2.56,0,0,0,.26-1.33h0A2.17,2.17,0,0,1,233.81,208.66Z" style="opacity:0.2"></path></g></g></g></g><g id="freepik--character-2--inject-62"><g id="freepik--Character--inject-62"><g id="freepik--Chair--inject-62"><path d="M356.39,409.82h0V281.29h-4.22V409.82h0a1,1,0,0,0,.61,1,3.28,3.28,0,0,0,3,0A1,1,0,0,0,356.39,409.82Z" style="fill:#37474f"></path><path d="M386.39,395.38h0V272.18h-4.23v123.2h0a1,1,0,0,0,.6,1,3.37,3.37,0,0,0,3,0A1,1,0,0,0,386.39,395.38Z" style="fill:#37474f"></path><path d="M322,395.38h0V272.18h4.23v123.2h0a1,1,0,0,1-.6,1,3.37,3.37,0,0,1-3,0A1,1,0,0,1,322,395.38Z" style="fill:#37474f"></path><path d="M382.15,243.31c-15.16-8.75-39.73-8.75-54.89,0-7.58,4.37-11.36,10.11-11.36,15.84v7c0,5.74,3.78,11.47,11.36,15.85,15.16,8.75,39.73,8.75,54.89,0,7.58-4.38,11.36-10.11,11.36-15.85v-7C393.51,253.42,389.73,247.68,382.15,243.31Z" style="fill:#455a64"></path><path d="M382.15,239.89c-15.16-8.75-39.73-8.75-54.89,0-7.58,4.37-11.36,10.11-11.36,15.84v7c0,5.74,3.78,11.47,11.36,15.85,15.16,8.75,39.73,8.75,54.89,0,7.58-4.38,11.36-10.11,11.36-15.85v-7C393.51,250,389.73,244.26,382.15,239.89Z" style="fill:#3333FF"></path><path d="M382.15,239.89c-15.16-8.75-39.73-8.75-54.89,0-7.58,4.37-11.36,10.11-11.36,15.84v7c0,5.74,3.78,11.47,11.36,15.85,15.16,8.75,39.73,8.75,54.89,0,7.58-4.38,11.36-10.11,11.36-15.85v-7C393.51,250,389.73,244.26,382.15,239.89Z" style="opacity:0.4"></path><ellipse cx="354.7" cy="255.73" rx="38.81" ry="22.41" style="fill:#3333FF;opacity:0.5"></ellipse><path d="M354.29,382.64c-9.33,0-18.65-2.05-25.75-6.15h0c-7.07-4.08-11-9.56-11-15.44s3.9-11.37,11-15.45c14.2-8.2,37.3-8.2,51.51,0,7.06,4.08,11,9.57,11,15.45s-3.9,11.36-11,15.44S363.62,382.64,354.29,382.64Zm-24.75-7.88c13.65,7.88,35.86,7.88,49.51,0,6.42-3.71,10-8.58,10-13.71s-3.54-10-10-13.72c-13.65-7.88-35.86-7.88-49.51,0-6.43,3.71-10,8.58-10,13.72s3.54,10,10,13.71Z" style="fill:#37474f"></path><path d="M358.16,236.1c-.76,0-1.59-.36-1.66-1.14-3.21-35.93,5.06-68.44,8.26-75.65a1.68,1.68,0,0,1,2.14-.71,1.5,1.5,0,0,1,.76,2c-3.59,8.07-11,40.92-8,74.31,0,.65-.54,1.13-1.36,1.21Z" style="fill:#455a64"></path><path d="M405.44,191,365,167.65l-1.65,1a192,192,0,0,0-4.64,24.77,1,1,0,0,0,.49,1l36.89,21.3,1.65-1C399.89,205.65,405.44,191,405.44,191Z" style="fill:#3333FF"></path><path d="M405.44,191,365,167.65l-1.65,1a192,192,0,0,0-4.64,24.77,1,1,0,0,0,.49,1l36.89,21.3,1.65-1C399.89,205.65,405.44,191,405.44,191Z" style="opacity:0.4"></path><polygon points="363.38 168.61 365.03 167.65 405.44 190.98 403.8 191.94 363.38 168.61" style="fill:#3333FF;opacity:0.5"></polygon><path d="M390.66,255.56c-.83,0-1.5-.3-1.5-.86,0-31.57,12.54-62.24,16.38-70.88a1.5,1.5,0,1,1,2.74,1.22c-3.78,8.51-16.15,38.68-16.12,69.66C392.16,255,391.49,255.56,390.66,255.56Z" style="fill:#455a64"></path></g><g id="freepik--character--inject-62"><path d="M400.77,167.72c-.79-.72-1.74-1.26-2.52-2a6.67,6.67,0,0,1-2-4c-.2-1.69.24-3.39.13-5.08a7.84,7.84,0,0,0-3.11-5.62c-1.95-1.47-4.4-1.58-6.46-2.8a7.18,7.18,0,0,1-2.94-3.16,10.65,10.65,0,0,1-.48-5.4,45,45,0,0,0-.17-11.6,25.43,25.43,0,0,0-5.66-12,24,24,0,0,0-20-8.75l-2.07.15a23.61,23.61,0,0,0-9.65,2.8l-1.08.62a1.37,1.37,0,0,1-.2.13c-.38.23-.75.48-1.12.74s-.73.54-1.09.83l0,0c-4.09,3.29-5.75,7.75-7,13-2.33,8.44-3.54,20.76.57,31.54,2.55,6.69,7.48,12.27,12.5,16.38,12.8,10.52,35.57,16,49.09,7.55C402.27,178.06,405.57,172.08,400.77,167.72Z" style="fill:#455a64"></path><path d="M351,108.23c-11.14.65-21.07,3.72-23.78,11.54s4.06,18,8.12,18C341.11,137.76,351,108.23,351,108.23Z" style="fill:#455a64"></path><path d="M340,376.78l-1.23-.2c0-3.88.3-7.42-.62-9.26L340,362.6Z" style="fill:#263238"></path><path d="M343.35,359.21c-.33,2.65-1.89,5.34-2.11,10.57a44.58,44.58,0,0,0,0,6.69l-1.29.31V362.6Z" style="fill:#263238"></path><path d="M312.85,379.73a3.54,3.54,0,0,0,.81,1.95c.66.52,2.75,2.28,9.58,2s9.24-1.9,11.62-4,3.1-7.65,3.5-10.28c.78-5.08,3-7.71,5-10.24a4.61,4.61,0,0,0,.26-2.65s-5.63-.43-8.2,5.77-4.63,13.4-10.18,15A87,87,0,0,1,312.85,379.73Z" style="fill:#37474f"></path><path d="M316.43,373.86c-2.12,1.76-3.71,2.53-3.57,4.2s1.9,2.46,3.31,2.92c3.32,1.07,7.13.73,10.49.2s7.14-2,8.64-5.2a13.42,13.42,0,0,0,.86-2.92,42.18,42.18,0,0,1,2.76-9.68,21.69,21.69,0,0,1,1.95-3.73c.91-1.25,2-2.61,2.2-4.2.16-1.32-.82-3.21-2.11-5.25l0,0a12.52,12.52,0,0,1-1.93-7.7l1-12-15.23,3.31,2,13.48c.52,3.53-.82,7.25-1.65,10.63a48.29,48.29,0,0,1-4.1,10.84,10.57,10.57,0,0,1-1.62,2.44A28.41,28.41,0,0,1,316.43,373.86Z" style="fill:#ffa8a7"></path><path d="M342.82,352.7c-.83-1.32-1.84-2.33-2.53-3.69a11.29,11.29,0,0,0-1.64,2.79h0c-1.79,3.38-2.23,8.73-4,14-1.32,4-3.44,6-6.32,7.07a11.47,11.47,0,0,1-5.63.52h0c-3.53-.56-2.65-3.09-2.65-3.09-.84,1.11-4.7,4-6.83,5.42-1.35.9-1.19,2.86-.36,4,1,.87,4.29,3,12.78,1.95,7.54-.94,9.37-4.37,10.11-5.92a37.35,37.35,0,0,0,1.71-7,22,22,0,0,1,2.79-7.43,8.81,8.81,0,0,1,.51-.78h0c.52-.74,1.13-1.55,1.82-2.35.54-.63,1-.92,1.13-1.52A5.29,5.29,0,0,0,342.82,352.7Z" style="fill:#3333FF"></path><path d="M342.82,352.7c-.83-1.32-1.84-2.33-2.53-3.69a11.29,11.29,0,0,0-1.64,2.79h0c-1.79,3.38-2.23,8.73-4,14-1.32,4-3.44,6-6.32,7.07a11.47,11.47,0,0,1-5.63.52h0c-3.53-.56-2.65-3.09-2.65-3.09-.84,1.11-4.7,4-6.83,5.42-1.35.9-1.19,2.86-.36,4,1,.87,4.29,3,12.78,1.95,7.54-.94,9.37-4.37,10.11-5.92a37.35,37.35,0,0,0,1.71-7,22,22,0,0,1,2.79-7.43,8.81,8.81,0,0,1,.51-.78h0c.52-.74,1.13-1.55,1.82-2.35.54-.63,1-.92,1.13-1.52A5.29,5.29,0,0,0,342.82,352.7Z" style="opacity:0.4"></path><path d="M317.22,360.23l-1.24-.17c-.11-3.87.08-7.42-.89-9.23l1.71-4.77Z" style="fill:#263238"></path><path d="M320.1,342.57c-.25,2.65-1.74,5.39-1.8,10.63a44.74,44.74,0,0,0,.19,6.68l-1.27.35-.42-14.17Z" style="fill:#263238"></path><path d="M290.21,364a3.53,3.53,0,0,0,.87,1.93c.67.5,2.81,2.12,9.62,1.66s9.2-2.08,11.51-4.23,2.88-7.73,3.2-10.37c.63-5.1,2.73-7.8,4.69-10.38a4.51,4.51,0,0,0,.18-2.65s-5.64-.27-8,6-4.24,13.53-9.74,15.31A86.4,86.4,0,0,1,290.21,364Z" style="fill:#37474f"></path><path d="M293.62,358c-2.07,1.82-3.64,2.63-3.44,4.29s2,2.41,3.38,2.82c3.36,1,7.15.53,10.49-.09s7.09-2.24,8.49-5.45a12.94,12.94,0,0,0,.77-2.95,42.32,42.32,0,0,1,2.49-9.75,21.37,21.37,0,0,1,1.83-3.79c.88-1.28,1.94-2.67,2.08-4.26.13-1.33-.91-3.19-2.25-5.18l0-.05a12.42,12.42,0,0,1-2.15-7.63l.62-12.07-15.12,3.75,2.38,13.41c.63,3.52-.61,7.28-1.34,10.68a47.91,47.91,0,0,1-3.79,11,10.4,10.4,0,0,1-1.54,2.48A28.66,28.66,0,0,1,293.62,358Z" style="fill:#ffa8a7"></path><path d="M319.38,336.07a42.5,42.5,0,0,1-2.63-3.61,11,11,0,0,0-1.56,2.83h0c-1.69,3.42-2,8.79-3.58,14.13-1.2,4-3.26,6.14-6.1,7.25a11.45,11.45,0,0,1-5.62.68h0c-3.55-.46-2.75-3-2.75-3-.81,1.14-4.57,4.15-6.66,5.62-1.33.93-1.12,2.89-.25,4,1,.84,4.38,2.88,12.83,1.58,7.51-1.15,9.24-4.64,9.94-6.21a37.39,37.39,0,0,0,1.5-7.07,21.9,21.9,0,0,1,2.57-7.5c.17-.29.33-.56.49-.8h0c.5-.75,1.09-1.58,1.76-2.4.52-.64.93-.94,1.08-1.55A5.32,5.32,0,0,0,319.38,336.07Z" style="fill:#3333FF"></path><path d="M319.38,336.07a42.5,42.5,0,0,1-2.63-3.61,11,11,0,0,0-1.56,2.83h0c-1.69,3.42-2,8.79-3.58,14.13-1.2,4-3.26,6.14-6.1,7.25a11.45,11.45,0,0,1-5.62.68h0c-3.55-.46-2.75-3-2.75-3-.81,1.14-4.57,4.15-6.66,5.62-1.33.93-1.12,2.89-.25,4,1,.84,4.38,2.88,12.83,1.58,7.51-1.15,9.24-4.64,9.94-6.21a37.39,37.39,0,0,0,1.5-7.07,21.9,21.9,0,0,1,2.57-7.5c.17-.29.33-.56.49-.8h0c.5-.75,1.09-1.58,1.76-2.4.52-.64.93-.94,1.08-1.55A5.32,5.32,0,0,0,319.38,336.07Z" style="opacity:0.4"></path><path d="M383.22,232.2a50.34,50.34,0,0,0-4.68-12.14c-14.49,6.89-29.05,6.69-43.65,2,.52,1.59-3.46,5.31-14,12.6-7.64,5.27-19.56,12.81-25.4,17.45-3,2.35-6.05,5.38-4.72,13.88,1.8,11.51,10,51.83,10,51.83,9.92,3.53,15-2.33,15-2.33s1.56-15.36,2.82-27.73-2.26-19.23-2.26-19.23,28.81-10.31,40.06-12.63C375.23,252,385.7,249.63,383.22,232.2Z" style="fill:#37474f"></path><path d="M333.83,232.84s4.4,9.81,10.21,12.22L323.66,266l-7.28,2.55,6.73-4.13,15.63-19.24S333.77,239.6,333.83,232.84Z" style="fill:#263238"></path><path d="M314.61,286.64a108.75,108.75,0,0,0,2.95,11.69c.36-3.49.73-7.14,1.08-10.56a47.74,47.74,0,0,0-.06-10.72l-1.91-2.11C314.47,277.84,313.21,279.57,314.61,286.64Z" style="fill:#263238"></path><path d="M383.26,232.44h0a1.75,1.75,0,0,0,0-.24,50.34,50.34,0,0,0-4.68-12.14c-14.49,6.89-29.05,6.69-43.65,2-.22,1.71.21,5,1,8.73C338,241.62,344,245.06,344,245.06h0c-8.73,8.57-20.59,20.68-26,27.33-1.49,1.85-2.93,5.66-2.06,11,1.89,11.5,9.21,53.62,9.21,53.62,9.95,2.67,14.28-1.19,14.28-1.19s2.31-16.5,3.57-28.87a47.53,47.53,0,0,0-3.57-22.68s17.29-9.09,27.72-15.76C383.5,258.08,386.84,246.61,383.26,232.44Z" style="fill:#37474f"></path><path d="M345.21,162.29c-8.28-.26-11.86,2.76-17.07,13-4.06,8-8.09,16.46-11.44,22.29-8.07-.61-23.3-2.71-28.93-4.88a4.69,4.69,0,0,1-2.45-2.17,19.26,19.26,0,0,0-4.86-5.83c-1.63-1.45-2-3.34-2.81-3.3s-1.76,1.32-1.33,3.16a25.94,25.94,0,0,0,2.19,4.07c-1.32.27-5.9-1.76-8.77-4.92-3.81-4.2-7.47-2.16-7,4.85.15,2.51,3.73,8.88,13.34,13.46a76.18,76.18,0,0,0,11.26,3.89c10,2.93,19.91,6.22,27.13,6.95,5.6.57,8.68,1,12.74-3.5C339,196.1,343.54,184,348.67,175.36Z" style="fill:#ffa8a7"></path><path d="M346.45,162.2c-4.85-.31-8.29.31-11.16,2.43s-4,4.15-6.89,9.26-11.88,23.39-11.88,23.39l-10.85-1a17.44,17.44,0,0,1,0,7.49,14,14,0,0,1-2.87,6.67s6.92,2,11.57,2.7c6.56,1,8.87,1.44,12.8-3.22S345.59,187,345.59,187Z" style="fill:#37474f"></path><path d="M377.46,216.61c-.86-1.37-1.92-3.82-1.55-5.58.56-2.59,2-10.25,2-10.25h0l-2.7-11.4a43.67,43.67,0,0,1-1.26-5.61c-1.37-4.93-2.59-13.69.54-18.5l-5.87-1.3a64.92,64.92,0,0,0-16.93-1.7l-5.26-.07S334.29,175.87,331.74,182c-1.46,3.53-3.35,9.91,3.31,17.43.18,4.27-.55,11.27-.69,14.67s-.45,7.56-.88,10.7c2,4.4,9.21,11.67,24.86,11.17,16.22-.52,24-8.62,24-8.62A41.41,41.41,0,0,0,377.46,216.61Z" style="fill:#3333FF"></path><path d="M348.33,198.72s4.16,4.79,12.62,3,9.88-8.24,9.88-8.24.83,8.24-9.28,10.31S348.33,198.72,348.33,198.72Z" style="opacity:0.1"></path><path d="M398.2,213c-1.54-7.07-4.73-19.22-7.94-31.82-3.47-13.62-6.68-13.74-15-15.28-6.26,7.67,0,25.59,0,25.59l7.15,24.75c-4.52,8-8.25,16.37-13.49,22.68-.9,1.09-2.52,1-3.93,1.2-3.77.4-5.18,1.2-8.47,2.42-2.57.95-4.24.69-4.29,1.37-.06.87.58,2.64,3,3a15.82,15.82,0,0,0,4.43-.2,32,32,0,0,1-7.54,4.75c-6.47,3-8.58,8.46.37,10.13,5.4,1,11.42-.25,19.73-8.17A87.93,87.93,0,0,0,382,242.46C389.35,232.23,399.16,218.87,398.2,213Z" style="fill:#ffa8a7"></path><path d="M374.51,165.27c4.52.86,8.19,1.61,10.05,3s3,2.42,4.6,7,8.58,32.73,9.1,35.18,1.33,4.62-1.07,9.38-9.29,14.29-9.29,14.29-3.47-5.07-11.46-6.95l4.88-10.85-9-29.62S368,172.89,374.51,165.27Z" style="fill:#37474f"></path><path d="M376.16,107l-1.64,6.29a3.16,3.16,0,0,0,4-2.21A3.42,3.42,0,0,0,376.16,107Z" style="fill:#455a64"></path><path d="M381.56,112.72l-6.5.24a3.15,3.15,0,0,0,3.26,3.19A3.41,3.41,0,0,0,381.56,112.72Z" style="fill:#455a64"></path><path d="M341.91,118.38c-2.68,1.59-6,8.33-5.67,22.46.28,12,4.16,14.94,6.11,15.79s5.71.33,9.36-.27v7.18s-3.35,2.93-3,6.23,7.3,4.07,12,.85,6.07-6.12,6.07-6.12V146.81s2,2.12,5.54-.3A6.54,6.54,0,0,0,374,137c-1.53-1.81-5.45-1.94-7.33.87,0,0-5.49.25-13.25-4S343,122.18,341.91,118.38Z" style="fill:#ffa8a7"></path><path d="M351,137.83a1.5,1.5,0,1,0,1.58-1.49A1.53,1.53,0,0,0,351,137.83Z" style="fill:#263238"></path><path d="M350,147.39l-4.33,1.38a2.23,2.23,0,0,0,2.82,1.55A2.37,2.37,0,0,0,350,147.39Z" style="fill:#f28f8f"></path><path d="M337.93,132.53l3.59-.94a1.78,1.78,0,0,0-2.2-1.35A2,2,0,0,0,337.93,132.53Z" style="fill:#263238"></path><path d="M352.18,131.67l3.33,1.63a1.77,1.77,0,0,0-.78-2.46A2,2,0,0,0,352.18,131.67Z" style="fill:#263238"></path><path d="M338.3,136.74a1.51,1.51,0,1,0,1.59-1.49A1.54,1.54,0,0,0,338.3,136.74Z" style="fill:#263238"></path><polygon points="346.67 135.88 346.43 144.95 341.65 143.47 346.67 135.88" style="fill:#f28f8f"></polygon><path d="M351.71,156.36c3.86-.51,11.78-2.79,13-5.92a8.19,8.19,0,0,1-2.78,4c-2.37,2-10.24,4.31-10.24,4.31Z" style="fill:#f28f8f"></path></g></g></g><g id="freepik--character-1--inject-62"><g id="freepik--character--inject-62"><g id="freepik--chair--inject-62"><path d="M144.07,409.82h0V281.29h4.23V409.82h0a1,1,0,0,1-.6,1,3.31,3.31,0,0,1-3,0A1,1,0,0,1,144.07,409.82Z" style="fill:#37474f"></path><path d="M114.07,395.38h0V272.18h4.22v123.2h0a1,1,0,0,1-.6,1,3.35,3.35,0,0,1-3,0A1,1,0,0,1,114.07,395.38Z" style="fill:#37474f"></path><path d="M178.43,395.38h0V272.18h-4.22v123.2h0a1,1,0,0,0,.6,1,3.35,3.35,0,0,0,3,0A1,1,0,0,0,178.43,395.38Z" style="fill:#37474f"></path><path d="M118.32,243.31c15.15-8.75,39.73-8.75,54.89,0,7.57,4.37,11.36,10.11,11.35,15.84v7c0,5.74-3.78,11.47-11.36,15.85-15.15,8.75-39.73,8.75-54.88,0-7.58-4.38-11.36-10.11-11.36-15.85v-7C107,253.42,110.74,247.68,118.32,243.31Z" style="fill:#455a64"></path><path d="M118.32,239.89c15.15-8.75,39.73-8.75,54.89,0,7.57,4.37,11.36,10.11,11.35,15.84v7c0,5.74-3.78,11.47-11.36,15.85-15.15,8.75-39.73,8.75-54.88,0-7.58-4.38-11.36-10.11-11.36-15.85v-7C107,250,110.74,244.26,118.32,239.89Z" style="fill:#3333FF"></path><path d="M118.32,239.89c15.15-8.75,39.73-8.75,54.89,0,7.57,4.37,11.36,10.11,11.35,15.84v7c0,5.74-3.78,11.47-11.36,15.85-15.15,8.75-39.73,8.75-54.88,0-7.58-4.38-11.36-10.11-11.36-15.85v-7C107,250,110.74,244.26,118.32,239.89Z" style="opacity:0.4"></path><ellipse cx="145.76" cy="255.73" rx="38.81" ry="22.41" style="fill:#3333FF;opacity:0.5"></ellipse><path d="M146.18,382.64c-9.33,0-18.66-2.05-25.76-6.15s-11-9.56-11-15.44,3.89-11.37,11-15.45c14.2-8.2,37.31-8.2,51.51,0,7.07,4.08,11,9.57,11,15.45s-3.89,11.36-11,15.44h0C164.83,380.59,155.5,382.64,146.18,382.64Zm0-41.22c-9,0-17.93,2-24.76,5.91-6.42,3.71-10,8.58-10,13.72s3.54,10,10,13.71c13.65,7.88,35.86,7.88,49.51,0h0c6.42-3.71,10-8.58,10-13.71s-3.54-10-10-13.72C164.11,343.39,155.14,341.42,146.18,341.42Z" style="fill:#37474f"></path><path d="M142.3,236.1c.77,0,1.59-.36,1.66-1.14,3.21-35.93-5.05-68.44-8.26-75.65a1.66,1.66,0,0,0-2.13-.71,1.5,1.5,0,0,0-.76,2c3.58,8.07,11,40.92,8,74.31,0,.65.53,1.13,1.36,1.21Z" style="fill:#455a64"></path><path d="M95,191l40.42-23.33,1.65,1a193.69,193.69,0,0,1,4.64,24.77,1,1,0,0,1-.49,1l-36.89,21.3-1.65-1C100.58,205.65,95,191,95,191Z" style="fill:#3333FF"></path><path d="M95,191l40.42-23.33,1.65,1a193.69,193.69,0,0,1,4.64,24.77,1,1,0,0,1-.49,1l-36.89,21.3-1.65-1C100.58,205.65,95,191,95,191Z" style="opacity:0.4"></path><polygon points="137.09 168.61 135.44 167.65 95.02 190.98 96.67 191.94 137.09 168.61" style="fill:#3333FF;opacity:0.5"></polygon><path d="M109.8,255.56c.83,0,1.5-.3,1.5-.86,0-31.57-12.53-62.24-16.37-70.88A1.5,1.5,0,0,0,92.18,185c3.79,8.51,16.15,38.68,16.12,69.66C108.3,255,109,255.56,109.8,255.56Z" style="fill:#455a64"></path></g><g id="freepik--character--inject-62"><path d="M144.75,106.64l-.13.08c-5.84,3.75-12.49,4.91-17.72,9.8a21.32,21.32,0,0,0-7,17.3c.6,13.75,11.7,20.81,15.45,24.85.18.19,1.45.06,1.7.07l3.8.18c.92,0,2.08.53,3,.26,1.16-.37,2-1.9,2.71-2.81,5.58-7.43,14.79-10.94,20.78-18,2.07-2.44,4.09-5.06,4.89-8.15s.11-6.79-2.46-8.69a6.89,6.89,0,0,0-7.12-10.8c1.13-2.54-.24-5.72-2.6-7.19a9.88,9.88,0,0,0-8.06-.65A30.26,30.26,0,0,0,144.75,106.64Z" style="fill:#263238"></path><path d="M135.13,163c-2.42,4.2-8.13,5.46-12.74,2.8s-6.37-8.23-3.94-12.44,8.13-5.45,12.74-2.79S137.56,158.76,135.13,163Z" style="fill:#263238"></path><path d="M169.83,300.28c-4.23-1-8.27,2-8.74,3.06-.64,1.43-.8,4.46.55,8.35a25.9,25.9,0,0,1,.64,11.88c-.68,3.36-3.21,11.65-.24,16.27s10.17,9.15,13.5,3.62c1.08-1.81,0-8.61-.26-13.51-.54-9.77-.74-19.44-.74-19.44Z" style="fill:#263238"></path><path d="M167.66,307.8a93.16,93.16,0,0,1-.43,14.2c-.63,5.14.09,8.65,1.62,11.14,1.69,2.74,6.44,4.69,6.43-.68,0-3.74-.74-21.95-.74-21.95Z" style="fill:#b16668"></path><path d="M162.7,301.8c-.54,3.15.55,10.91,4.09,18.43,3.46,7.37,8.45,17,9.1,22.08.36-2.26-.15-6.51-.46-10.29,0-.08,0-.16,0-.24s0-.44,0-.66,0-.2,0-.29c0-.28,0-.56-.05-.83V330c-.17-3.06-.3-6.1-.41-8.84-.09-2.19-.15-4.19-.2-5.85,0-.83,0-1.57-.07-2.21,0-.32,0-.61,0-.88,0-1.06,0-1.66,0-1.66l-4.71-10.23c-.28-.07-.55-.11-.82-.15A9.46,9.46,0,0,0,162.7,301.8Z" style="opacity:0.15"></path><path d="M193.12,242.51c-11.81-9.1-26.13-17.68-26.13-17.68L150.9,241.68l13.79,14L185.89,270a28.93,28.93,0,0,0-5.95,8.49c-.8,1.72-2.08,5.19-3.45,9.12L183.58,312s14.82-21,23.2-35.29c6.65-11.35,5.15-16.5,4.08-18.15C208,254.19,206,252.43,193.12,242.51Z" style="fill:#37474f"></path><path d="M181,266.7c-1.1-1.55-2.26-3-3.42-4.46-4.39-5.37-15.82-18.51-15.82-18.51l-2,1.23,9.17,13.6Z" style="fill:#263238"></path><path d="M187.48,306.42c0-8.74-.15-20.93-.47-25.25a24.23,24.23,0,0,0-2.84-9.34,31.61,31.61,0,0,0-3.79,5.76l5.43,31.25Z" style="fill:#263238"></path><path d="M176.18,349c-1-.17-1.29,1.6-2.16,3.8a11.59,11.59,0,0,0-1.05,6.75c.56,2.95,5,4,6.84,8.05s4.29,11.18,12,14.31,14.36,1.53,16.29-.6,1-4.64-3.66-8.49c-4.92-4.09-6.31-5.28-6.31-5.28Z" style="fill:#263238"></path><path d="M188.44,336.69A124.48,124.48,0,0,0,191,351.23c1.5,5.36,4.42,10.69,7.8,15.79.74,1.11,2.47,3.22,3.07,4.11a1.58,1.58,0,0,1-.47,2.39c-2,1.46-9.52.91-13.31-2.77s-6.75-10.87-8.93-13.71a38.74,38.74,0,0,1-2.28-3.3,5.23,5.23,0,0,1-.86-3.51,15.09,15.09,0,0,0,.3-4.86,54.85,54.85,0,0,0-1.17-6.47Z" style="fill:#b16668"></path><path d="M120,223.28c-2.63,7.92-4.39,10.6-2.73,19.24s10.2,16.65,20.75,24.76c8.72,6.71,21.61,16.43,24.27,18s2.74,3.36,1.65,8.69-.36,14.37,4.2,26.15c4.83,12.45,7.3,20.81,7.3,20.81a15.08,15.08,0,0,0,13.62-2.21s-3.81-54.12-5.3-61.46-25-33.46-25-33.46,5.13-11.17,8.26-19Z" style="fill:#37474f"></path><path d="M167,236.65s-2.38,6.09-7.27,8.31l1.92,2.17A14.17,14.17,0,0,0,167,236.65Z" style="fill:#263238"></path><path d="M155.25,162.29c8.29-.26,11.87,2.76,17.07,13,4.07,8,8.1,16.46,11.44,22.29,8.08-.61,23.3-2.71,28.94-4.88a4.63,4.63,0,0,0,2.44-2.17,19.29,19.29,0,0,1,4.87-5.83c1.62-1.45,2-3.34,2.8-3.3s1.77,1.32,1.34,3.16a27.76,27.76,0,0,1-2.19,4.07c1.32.27,5.9-1.76,8.76-4.92,3.82-4.2,7.48-2.16,7.05,4.85-.15,2.51-3.73,8.88-13.35,13.46a75.39,75.39,0,0,1-11.26,3.89c-10,2.93-19.9,6.22-27.13,6.95-5.59.57-8.67,1-12.73-3.5-11.83-13.21-16.38-25.31-21.51-33.95Z" style="fill:#b16668"></path><path d="M155.25,162.29c4.06-.4,6.81.24,9.44,1.89s4.9,5.12,6,7c.41,3.31-1.59,11.73-9.17,16.52Z" style="fill:#455a64"></path><path d="M123,216.61c.86-1.37,1.92-3.82,1.54-5.58-.55-2.59-2-10.25-2-10.25h0l-1.84-7.84s5.13-8,5.82-12.24.63-7.25-1.29-14.85l8.8-1.58a56.64,56.64,0,0,1,14.72-1.83l6.5-.15s12,12.65,13.84,18.21c1.18,3.64,2.61,10.25-2.85,18.12-.17,4.27-.28,12.11-.14,15.51s.46,7.56.89,10.7c-2,4.4-9.21,11.67-24.87,11.17-16.21-.52-24-8.62-24-8.62A41,41,0,0,1,123,216.61Z" style="fill:#3333FF"></path><path d="M160.56,221.51a6.16,6.16,0,0,1-2.36-.61c-1-.52-1.8-1.76-2.41-3.81-.52-1.74-1.23-5.49-.22-7.26,1.29-2.25,4.17-2,6.08-1.83l.66.05-.21,3-.71-.05c-1.07-.1-2.87-.25-3.2.32-.52,1.14.51,6.18,1.43,6.9a4.69,4.69,0,0,0,2.79.13l.77,2.93A8.81,8.81,0,0,1,160.56,221.51Z" style="fill:#e6e6e6"></path><path d="M161.89,204.86c.28-.92,1.27-1.76,3-2.36a19.68,19.68,0,0,1,13.74,1c1.59.82,2.46,1.79,2.62,2.74h.05c.22,6.19-1.37,13.23-3.83,17a.56.56,0,0,0-.05.08l0,.05h0a4.59,4.59,0,0,1-1.91,1.57,11.54,11.54,0,0,1-10.43-.73,4.77,4.77,0,0,1-1.67-1.81h0l0-.06,0-.09c-1.91-4.09-2.51-11.28-1.44-17.37Z" style="fill:#f5f5f5"></path><path d="M164.86,202.5c-3.91,1.38-4.1,4.06-.42,6a19.82,19.82,0,0,0,13.75,1c3.91-1.39,4.09-4.06.41-6A19.68,19.68,0,0,0,164.86,202.5Z" style="fill:#fafafa"></path><path d="M166.11,203.63c-3.13.86-3.26,2.61-.27,3.9a19.52,19.52,0,0,0,11.09.77c3.14-.87,3.26-2.61.27-3.9A19.43,19.43,0,0,0,166.11,203.63Z" style="fill:#e6e6e6"></path><path d="M166,206a6,6,0,0,0-1.59.67,5.94,5.94,0,0,0,1.48.88,19.52,19.52,0,0,0,11.09.77,5.7,5.7,0,0,0,1.59-.67,5.83,5.83,0,0,0-1.48-.87A19.52,19.52,0,0,0,166,206Z" style="fill:#37474f"></path><path d="M113,231.13c14.12,1.65,48.59-.84,48.59-.84,5.06-.32,12.52-1,16-4.62,2.44-2.5,3.76-7,4.1-8.83.86-4.48-5.21.68-10.23.88a23.83,23.83,0,0,1-10-2.29,39,39,0,0,1-.26-4.42c-2.28,0-4.08,6.81-5.94,8.07-2.26,1.52-36-4.94-36-4.94l4.8-19.55a65,65,0,0,1,2.72-9.92c2.06-5.88,1.7-10.31-1.56-18.82,0,0-9.47.71-12.23,6.45s-4.33,14-6.54,25-3.62,25.32-3,27.86C104.28,229.11,107.54,230.49,113,231.13Z" style="fill:#b16668"></path><path d="M125.23,165.85c-5,0-11.31,1.8-12.82,6.22a84.37,84.37,0,0,0-2.48,9.13c4.08.86,10.42,4.52,14.14,13.39,0,0,1.06-2.94,3-8.75C130.36,175.29,126.92,168.25,125.23,165.85Z" style="fill:#455a64"></path><path d="M152.13,198.72s-4.15,4.79-12.61,3-9.88-8.24-9.88-8.24-.84,8.24,9.28,10.31C148.88,205.85,152.13,198.72,152.13,198.72Z" style="opacity:0.1"></path><path d="M158.56,118.38c2.68,1.59,6,8.33,5.66,22.46-.27,12-4.15,14.94-6.1,15.79s-5.71.33-9.37-.27v7.18s5.05,5.87,4.74,9.17-7.3,4.07-12,.85a30.64,30.64,0,0,1-7.75-8.12V146.81s-2,2.12-5.54-.3A6.52,6.52,0,0,1,126.5,137c1.53-1.81,5.45-1.94,7.33.87,0,0,4.91-.43,12.67-4.69A25,25,0,0,0,158.56,118.38Z" style="fill:#b16668"></path><path d="M133.83,142.18h0v-6.3h4v2.28A4,4,0,0,1,133.83,142.18Z" style="fill:#263238"></path><path d="M149.51,137.83a1.51,1.51,0,1,1-1.58-1.49A1.54,1.54,0,0,1,149.51,137.83Z" style="fill:#263238"></path><path d="M150.47,147.75l4.6,1.46a2.37,2.37,0,0,1-3,1.65A2.52,2.52,0,0,1,150.47,147.75Z" style="fill:#9a4a4d"></path><path d="M162.86,133.21l-3-2.12a1.77,1.77,0,0,1,2.53-.51A1.94,1.94,0,0,1,162.86,133.21Z" style="fill:#263238"></path><path d="M162.16,136.74a1.52,1.52,0,0,1-1.42,1.64,1.57,1.57,0,1,1,1.42-1.64Z" style="fill:#263238"></path><polygon points="153.8 135.88 154.04 144.95 158.81 143.47 153.8 135.88" style="fill:#9a4a4d"></polygon><path d="M148.75,156.36c-3.85-.51-11.78-2.79-13-5.92a8.1,8.1,0,0,0,2.78,4c2.37,2,10.23,4.31,10.23,4.31Z" style="fill:#9a4a4d"></path></g></g></g><g id="freepik--speech-bubbles--inject-62"><g id="freepik--speech-bubble--inject-62"><path d="M145.28,97.05l-5.54-3.2a.53.53,0,0,1-.26-.23l-1-1.78,3.29-1.9-.1.29Z" style="fill:#3333FF"></path><path d="M145.28,97.05l-5.54-3.2a.53.53,0,0,1-.26-.23l-1-1.78,3.29-1.9-.1.29Z" style="opacity:0.2"></path><path d="M141.25,90.21l3.84,6.65a.57.57,0,0,0,1-.1l4-11.7Z" style="fill:#3333FF"></path><path d="M175.24,42.36a5.91,5.91,0,0,0-2.68-4.64l-2.18-1.26a5.89,5.89,0,0,0-5.36,0l-40,23a5.91,5.91,0,0,0-2.68,4.64V89.36A5.93,5.93,0,0,0,125,94l2.18,1.26a6,6,0,0,0,5.36,0L172.81,72.1c2.41-1.37,2.43-2.75,2.43-4.46Z" style="fill:#3333FF"></path><path d="M122.32,89.36A5.93,5.93,0,0,0,125,94l2.18,1.26a6,6,0,0,0,4.9.22c-1.26.48-2.22-.24-2.22-1.77V68.43a5.44,5.44,0,0,1,.79-2.64l-7.54-4.35a5.41,5.41,0,0,0-.79,2.64Z" style="opacity:0.2"></path><path d="M175.15,41.6c-.31-1.14-1.35-1.5-2.59-.79l-40,23a5.37,5.37,0,0,0-1.89,2l-7.53-4.35a5.43,5.43,0,0,1,1.88-2l40-23a6,6,0,0,1,5.37,0l2.18,1.26A5.89,5.89,0,0,1,175.15,41.6Z" style="fill:#fff;opacity:0.4"></path><path d="M137.06,75.53l16.37-9.36c.89-.52,1.62-.28,1.62.53a3.26,3.26,0,0,1-1.62,2.4l-16.37,9.36c-.89.52-1.62.28-1.62-.53A3.26,3.26,0,0,1,137.06,75.53Z" style="fill:#fff"></path><path d="M137.06,82.89,164.69,67c.89-.52,1.62-.28,1.62.53a3.26,3.26,0,0,1-1.62,2.4L137.06,85.82c-.89.52-1.62.28-1.62-.53A3.24,3.24,0,0,1,137.06,82.89Z" style="fill:#fff"></path><path d="M137.06,67.8l27.63-15.92c.89-.52,1.62-.28,1.62.52a3.28,3.28,0,0,1-1.62,2.41L137.06,70.73c-.89.52-1.62.29-1.62-.52A3.28,3.28,0,0,1,137.06,67.8Z" style="fill:#fff"></path></g><g id="freepik--speech-bubble--inject-62"><path d="M357.18,97.05l5.54-3.2a.53.53,0,0,0,.26-.23l1-1.78-3.29-1.9.1.29Z" style="fill:#3333FF"></path><path d="M357.18,97.05l5.54-3.2a.53.53,0,0,0,.26-.23l1-1.78-3.29-1.9.1.29Z" style="fill:#263238"></path><path d="M361.21,90.21l-3.83,6.65a.58.58,0,0,1-1-.1l-4-11.7Z" style="fill:#37474f"></path><path d="M327.22,42.36a5.91,5.91,0,0,1,2.68-4.64l2.18-1.26a5.89,5.89,0,0,1,5.36,0l40,23a5.91,5.91,0,0,1,2.68,4.64V89.36A5.93,5.93,0,0,1,377.46,94l-2.18,1.26a6,6,0,0,1-5.36,0L329.65,72.1c-2.41-1.37-2.43-2.75-2.43-4.46Z" style="fill:#37474f"></path><path d="M380.14,89.36A5.93,5.93,0,0,1,377.46,94l-2.18,1.26a6,6,0,0,1-4.9.22c1.26.48,2.22-.24,2.22-1.77V68.43a5.44,5.44,0,0,0-.79-2.64l7.54-4.35a5.41,5.41,0,0,1,.79,2.64Z" style="fill:#263238"></path><path d="M327.31,41.6c.31-1.14,1.35-1.5,2.59-.79l40,23a5.37,5.37,0,0,1,1.89,2l7.54-4.35a5.45,5.45,0,0,0-1.89-2l-40-23a6,6,0,0,0-5.37,0l-2.18,1.26A5.89,5.89,0,0,0,327.31,41.6Z" style="fill:#455a64"></path><path d="M352.54,68.28l-16.36-9.36c-.89-.52-1.62-.28-1.62.52a3.28,3.28,0,0,0,1.62,2.41l16.36,9.36c.9.52,1.63.28,1.63-.53A3.23,3.23,0,0,0,352.54,68.28Z" style="fill:#3333FF"></path><path d="M363.94,82.09,336.31,66.16c-.89-.51-1.62-.28-1.62.53a3.28,3.28,0,0,0,1.62,2.41L363.94,85c.89.52,1.62.28,1.62-.53A3.26,3.26,0,0,0,363.94,82.09Z" style="fill:#3333FF"></path><path d="M363.94,67,336.31,51.08c-.89-.52-1.62-.28-1.62.53a3.26,3.26,0,0,0,1.62,2.4l27.63,15.93c.89.52,1.62.28,1.62-.53A3.26,3.26,0,0,0,363.94,67Z" style="fill:#3333FF"></path></g></g></svg>